# Blender v2.80 (sub 74) OBJ File: ''
# www.blender.org
mtllib skybox_sphere.mtl
o Cube
v -1.000000 -1.000000 1.000000
v -1.000000 1.000000 1.000000
v -1.000000 -1.000000 -1.000000
v -1.000000 1.000000 -1.000000
v 1.000000 -1.000000 1.000000
v 1.000000 1.000000 1.000000
v 1.000000 -1.000000 -1.000000
v 1.000000 1.000000 -1.000000
vt 0.750000 0.333589
vt 0.750000 0.666411
vt 0.500000 0.666411
vt 0.500000 0.333589
vt 0.250000 0.666411
vt 0.250000 0.333589
vt 0.000000 0.666411
vt 0.000000 0.333589
vt 1.000000 0.333589
vt 1.000000 0.666411
vt 0.500395 0.333333
vt 0.250395 0.333333
vt 0.250395 0.000000
vt 0.500395 0.000000
vt 0.249612 0.666667
vt 0.499612 0.666667
vt 0.499612 1.000000
vt 0.249612 1.000000
vn -0.5773 -0.5773 0.5773
vn -0.5773 0.5773 0.5773
vn -0.5773 0.5773 -0.5773
vn -0.5773 -0.5773 -0.5773
vn 0.5773 0.5773 -0.5773
vn 0.5773 -0.5773 -0.5773
vn 0.5773 0.5773 0.5773
vn 0.5773 -0.5773 0.5773
usemtl Material
s 1
f 1/1/1 2/2/2 4/3/3 3/4/4
f 3/4/4 4/3/3 8/5/5 7/6/6
f 7/6/6 8/5/5 6/7/7 5/8/8
f 5/9/8 6/10/7 2/2/2 1/1/1
f 3/11/4 7/12/6 5/13/8 1/14/1
f 8/15/5 4/16/3 2/17/2 6/18/7
