# Blender v2.80 (sub 74) OBJ File: ''
# www.blender.org
o Cube
v -1.000000 -1.000000 1.000000
v -1.000000 1.000000 1.000000
v -1.000000 -1.000000 -1.000000
v -1.000000 1.000000 -1.000000
v 1.000000 -1.000000 1.000000
v 1.000000 1.000000 1.000000
v 1.000000 -1.000000 -1.000000
v 1.000000 1.000000 -1.000000
vt 0.750000 0.333333
vt 0.750000 0.666666
vt 0.500000 0.666666
vt 0.500000 0.333333
vt 0.250000 0.666666
vt 0.250000 0.333333
vt 0.000000 0.666666
vt 0.000000 0.333333
vt 1.000000 0.333333
vt 1.000000 0.666666
vt 0.500000 0.333333
vt 0.250000 0.333333
vt 0.250000 0.000000
vt 0.500000 -0.000000
vt 0.250000 1.000000
vt 0.250000 0.666666
vt 0.500000 0.666666
vt 0.500000 1.000000
vn -1.0000 0.0000 0.0000
vn 0.0000 0.0000 -1.0000
vn 1.0000 0.0000 0.0000
vn 0.0000 0.0000 1.0000
vn 0.0000 -1.0000 0.0000
vn 0.0000 1.0000 0.0000
s off
f 1/1/1 2/2/1 4/3/1 3/4/1
f 3/4/2 4/3/2 8/5/2 7/6/2
f 7/6/3 8/5/3 6/7/3 5/8/3
f 5/9/4 6/10/4 2/2/4 1/1/4
f 3/11/5 7/12/5 5/13/5 1/14/5
f 8/15/6 4/16/6 2/17/6 6/18/6
